<svg xmlns="http://www.w3.org/2000/svg" width="512" height="512" viewBox="0 0 512 512">
  <g id="icon-light" transform="translate(174.448 82.97)">
    <path id="Path_27" data-name="Path 27" d="M333.311,176.685c-1.812,7.367-2.943,14.449-5.4,21.035-4.04,10.83-7.921,21.934-13.714,31.844-8.844,15.127-19.933,28.946-28.708,44.108-4.061,7.016-8.138,14.868-7.375,23.9,1.032,12.221-6.08,19.909-15.757,25.333a87.31,87.31,0,0,1-50.023,11,67.57,67.57,0,0,1-15.72-3.318c-9.2-3-18.545-5.756-25.931-12.712-4.907-4.621-8.519-9.905-8.364-16.631.336-14.525-6.26-26.31-13.881-37.782-12.85-19.341-27.409-37.748-34.779-60.169-2.72-8.276-3.883-17.064-6.134-25.857-.439-9.1-.5-17.969-.1-27.57,2.761-17.225,7.135-32.969,15.592-47.54a106.114,106.114,0,0,1,37.136-37.932c10.7-6.5,22.364-11.309,35-13.1,7.054-1,14.1-2.086,21.144-3.134a44.5,44.5,0,0,1,7.55.323c7.54,1.244,14.376,1.793,21.13,2.862a98.077,98.077,0,0,1,42.186,17.647A104.736,104.736,0,0,1,314.53,97.652c6.112,9.516,11.238,19.534,13.463,30.857,1.394,7.092,3.481,14.048,5.257,21.066.049,8.868.1,17.735.062,27.111m-40.782,61.807c8.206-11.92,15.949-24.028,21.372-37.613,5.044-12.637,6.724-25.818,7.077-39.06a93.845,93.845,0,0,0-3.363-26.768c-5.837-21.442-16.432-40.2-34.443-54.056a95.584,95.584,0,0,0-43.286-19.019,114.523,114.523,0,0,0-52.2,2.749C168.8,70.3,152.4,80.8,140.531,96.359c-8.921,11.691-15.987,24.857-18.47,40.122-2,12.285-4.966,24.18-3.13,36.922,1.864,12.939,4.425,25.623,10.907,36.9,8.274,14.4,17.468,28.275,26.563,42.182,8.2,12.538,16.073,25.007,17.051,40.665.433,6.932,1.41,14.443,9.231,17.674,7.361,3.041,14.736,6.319,22.417,8.26,17.2,4.348,33.872,1.1,49.408-6.584,6.192-3.063,10.763-8.32,10.748-16.955a44.957,44.957,0,0,1,4.98-20.078C276.748,262.956,284.634,251.158,292.529,238.492Z" transform="translate(-107.159 -48.131)" fill="#fff"/>
    <path id="Path_30" data-name="Path 30" d="M213.374,374.855c-6.423-1.537-11.836-4-15.676-9.141-.654-.875-2-1.674-2.011-2.519-.091-8.563-7.338-7.293-12.32-9.357a197.4,197.4,0,0,1-19.781-9.2c-3.512-1.934-3.9-5.911-1.286-8.907,2.689-3.077,5.673-1.866,9.12.122,5.638,3.253,11.667,6.542,17.937,7.816a119.97,119.97,0,0,0,27,2.309c14.75-.408,29.419-1.884,42.057-11.167,1.7-1.249,6.443-.885,7.875.584,2.553,2.622,2.9,7.13-.8,9.371-5.77,3.5-12.027,6.221-18.181,9.047-1.741.8-3.834.875-5.783,1.173-4.289.657-6.273,2.621-8.03,7.189-2.659,6.914-9.061,10.991-17.065,12.218a6.614,6.614,0,0,1-3.056.459m.117-16.544H207.54c5.258,4.671,9.867,4.3,12.469,0Z" transform="translate(-101.578 -18.292)" fill="#fff"/>
    <path id="Path_31" data-name="Path 31" d="M241.861,322.533c-10.382,1.527-20.391,3.883-30.389,3.838a85.218,85.218,0,0,1-46.265-13.9,20.965,20.965,0,0,1-2.886-2.387c-2.829-2.644-2.984-5.578-.789-8.68,2.348-3.318,5.23-2.785,8.121-.922a89.851,89.851,0,0,0,33.187,13.047,65.263,65.263,0,0,0,34.616-3.212c7.091-2.6,13.5-7,20.508-9.908,2.295-.951,6.862-.761,7.979.723,2.1,2.784,3.1,7.259-1.264,9.657C257.318,314.834,249.731,318.472,241.861,322.533Z" transform="translate(-101.638 -21.933)" fill="#fff"/>
    <path id="Path_32" data-name="Path 32" d="M174.383,334.591c-4.475-2.367-8.973-4.067-12.43-7-1.487-1.26-.812-5.07-1.12-7.721,3.365-.355,7.792-2.271,9.926-.818,17.32,11.8,36.283,12.261,56.129,10.314,10.988-1.078,20.36-5.139,29.441-10.773,3.47-2.153,8.087-3.159,10.2.534,1.766,3.086,1.277,7.168-3.276,10.152-11.22,7.352-23.477,10.353-36.529,12.273-14.921,2.194-29.187-.039-43.468-3.543C180.341,337.3,177.6,335.862,174.383,334.591Z" transform="translate(-101.554 -20.087)" fill="#fff"/>
    <path id="Path_35" data-name="Path 35" d="M238.867,71.325c12.658,3.026,22.452,10.279,31.772,18.148a56.921,56.921,0,0,1,10,11.261c1.349,1.967,2.175,6.466,1.088,7.455-1.951,1.775-5.63,2.587-8.387,2.234-2.073-.265-4.19-2.709-5.671-4.653a61.317,61.317,0,0,0-23.2-18.345c-5.9-2.761-12.447-4.127-18.673-6.211-3.835-1.284-6.978-3.527-6.506-8.047.391-3.749,5.01-6.091,9.416-5C232,68.98,235.186,70.205,238.867,71.325Z" transform="translate(-95.454 -46.067)" fill="#fff"/>
    <rect id="Rectangle_5" data-name="Rectangle 5" width="512" height="512" transform="translate(-174.448 -82.97)" fill="none"/>
  </g>
</svg>
