<svg xmlns="http://www.w3.org/2000/svg" width="512" height="512" viewBox="0 0 512 512">
  <g id="icon-star" transform="translate(47.916 64.171)">
    <path id="Path_52" data-name="Path 52" d="M21.082,181.7c2.172-4.532,5.317-5.833,10.063-6.225,12.2-1.006,24.314-3.079,36.474-4.629,8.236-1.05,16.5-1.847,24.736-2.917,16.252-2.113,32.483-4.379,48.734-6.5,6.81-.888,13.656-1.506,20.468-2.383,1.318-.17,3.3-.627,3.717-1.534,5.794-12.465,11.3-25.063,17.016-37.566C187.052,109.53,192,99.2,196.847,88.826c4.454-9.542,8.812-19.129,13.335-28.638,4.511-9.484,9.175-18.9,13.918-28.7a66.813,66.813,0,0,1,9.528-.439c8.939,18,17.4,35.929,25.837,53.868q9.019,19.184,17.97,38.4c5.112,10.983,10.12,22.015,15.326,32.953a5.219,5.219,0,0,0,3.264,2.727c18.821,2.362,37.674,4.472,56.5,6.77,17.35,2.117,34.681,4.388,52.02,6.595,8.575,1.091,17.206,1.888,25.685,3.485,2.325.438,4.2,3.284,6.615,5.219a7.951,7.951,0,0,1,.142,4.312c-1.255,1.728-1.882,3.112-2.915,4.048-6.611,5.989-13.433,11.75-19.959,17.829-13.262,12.355-26.356,24.89-39.565,37.3-10.989,10.326-21.858,20.793-33.149,30.781-5.442,4.815-8.694,9.562-4.907,16.772a7.531,7.531,0,0,1,.359,2.138c2.134,12.183,4.168,24.385,6.449,36.54,1.324,7.058,3.2,14.012,4.561,21.063,3,15.486,6.1,30.961,8.629,46.527,1.433,8.827,5.605,17.635,1.444,26.806a74.984,74.984,0,0,1-9.525-.3c-14.572-8.148-28.485-15.9-42.431-23.59-13.739-7.576-27.529-15.06-41.263-22.643-11.183-6.174-22.289-12.488-33.52-18.573a5.133,5.133,0,0,0-4.195.122c-14.029,7.642-27.963,15.458-41.946,23.186-13.276,7.338-26.617,14.562-39.862,21.954-11.69,6.525-23.288,13.213-34.927,19.829a64.36,64.36,0,0,1-9.307-.312c-4.552-6.081-1.947-12.219-1.078-17.717,2.991-18.928,6.917-37.711,10.616-56.524,3.908-19.881,7.759-39.778,12.075-59.571,1.34-6.146.954-10.894-4.613-14.621a62.521,62.521,0,0,1-7.492-6.341c-8.89-8.25-17.717-16.568-26.582-24.845q-11.3-10.556-22.637-21.082c-6.785-6.342-13.589-12.665-20.3-19.087-6.678-6.394-13.248-12.9-19.865-19.358-.033-1.192-.066-2.383-.009-4.013M284.93,372.711a37.726,37.726,0,0,0,3.861,2.845c4.853,2.734,9.769,5.356,14.662,8.019l39.784,21.644a7.724,7.724,0,0,0,.2-1.948c-3.282-16.371-6.7-32.715-9.868-49.107-2.726-14.1-5.2-28.242-7.739-42.373-1.88-10.451-3.882-20.888-5.382-31.395a9.245,9.245,0,0,1,2.217-6.876c7.017-7.057,14.405-13.749,21.737-20.488,10.634-9.774,21.4-19.4,31.982-29.233,7.186-6.681,14.183-13.569,21.185-20.445,5.093-5,10.056-10.135,15.09-15.223-15.453-1.962-30.677-3.957-45.918-5.809-10.054-1.222-20.146-2.135-30.2-3.371-14.145-1.74-28.291-3.5-42.388-5.582-4.071-.6-8.971-.265-11.262-5.039-4.559-9.5-9.009-19.057-13.543-28.571C262.51,125.4,255.546,111.1,248.8,96.695c-6.57-14.022-12.935-28.14-19.423-42.287-2.874,5.578-5.833,10.883-8.389,16.376-4.578,9.839-8.817,19.836-13.374,29.685-5.788,12.509-11.737,24.944-17.643,37.4-4.9,10.323-9.73,20.677-14.854,30.885a7.156,7.156,0,0,1-4.558,3.47c-14.273,2.068-28.59,3.842-42.9,5.655-8.962,1.135-17.937,2.162-26.9,3.279-8.762,1.092-17.515,2.258-26.277,3.351-9.561,1.193-19.128,2.339-29.287,3.578,1.232,1.331,1.917,2.168,2.7,2.9,10.545,9.872,21.161,19.67,31.645,29.607,10.828,10.264,21.506,20.685,32.3,30.989,6.608,6.311,12.842,13.148,20.117,18.578,5.011,3.74,6.98,7.824,6.045,13.427-2.249,13.478-4.729,26.921-7.291,40.344-1.411,7.391-3.349,14.682-4.742,22.076-2.33,12.37-4.327,24.8-6.635,37.177-1.345,7.212-3.023,14.361-4.689,22.185,13-7.021,25.4-13.7,37.788-20.407,12.885-6.978,25.8-13.9,38.618-21,11.423-6.323,22.652-13,34.174-19.137a9.609,9.609,0,0,1,7.52-.074c7.087,3.313,13.867,7.284,20.768,11C263.74,361.26,273.978,366.762,284.93,372.711Z" transform="translate(-21.051 -31.04)" fill="#fff"/>
    <rect id="Rectangle_4" data-name="Rectangle 4" width="512" height="512" transform="translate(-47.916 -64.171)" fill="none"/>
  </g>
</svg>
