<svg xmlns="http://www.w3.org/2000/svg" width="512" height="512" viewBox="0 0 512 512">
  <g id="icon-spiral" transform="translate(69.903 53.661)">
    <path id="Path_42" data-name="Path 42" d="M369.019,145.838c-10.4,9.537-22.081,15.186-36.051,13.517A46.514,46.514,0,0,1,303.92,144.83c-9.656-10.1-12.389-21.846-11.963-35.14.531-16.555,13.917-33.116,29.915-37.729,10.427-3.006,20.574-2.973,30.231.683,9.753,3.692,17.115,10.724,22.982,19.92,6.562,10.285,5.745,21.172,5,31.974C379.536,132.575,374.66,139.432,369.019,145.838Z" transform="translate(-14.796 -26.988)" fill="#fff"/>
    <path id="Path_38" data-name="Path 38" d="M267.26,31.04c8.454,3.5,17.13,5.8,22.781,13.016,5.094,6.507,9.6,13.136,9.826,22.146.236,9.414.362,18.451-5.131,26.71-7.162,10.769-16.7,17.3-29.808,18.792-12.124,1.378-22.7-2.186-32.087-9.3-7.8-5.912-11.716-14.621-13.665-23.931-2.58-12.326.85-23.5,8.766-33.093a39.457,39.457,0,0,1,22.887-13.893C256.236,31.061,261.489,31.019,267.26,31.04Z" transform="translate(-22.481 -31.036)" fill="#fff"/>
    <path id="Path_43" data-name="Path 43" d="M166.21,112.792c-10.782-1.372-18.791-6.335-24.552-14.984-6.7-10.063-7.839-20.726-4.566-32.326,3.165-11.218,14.232-21.85,25.953-23.309,5.915-.736,12.213-1.9,17.861-.676,26.658,5.786,36.9,35.98,20.569,57.857A32.813,32.813,0,0,1,175,112.787C172.241,112.829,169.48,112.793,166.21,112.792Z" transform="translate(-31.149 -29.999)" fill="#fff"/>
    <path id="Path_44" data-name="Path 44" d="M97.016,96c9.062.157,17.021.083,24.835,6.121,7.863,6.076,11.111,13.564,12.146,22.189a32.817,32.817,0,0,1-35.165,36.695c-16.859-1.477-28.388-12.967-29.764-30.1C68.029,117.973,73.6,107.77,84.06,100.572,87.588,98.145,92.325,97.476,97.016,96Z" transform="translate(-38.082 -24.251)" fill="#fff"/>
    <ellipse id="Ellipse_1" data-name="Ellipse 1" cx="28.715" cy="28.715" rx="28.715" ry="28.715" transform="translate(0 165.625)" fill="#fff"/>
    <ellipse id="Ellipse_3" data-name="Ellipse 3" cx="20.432" cy="20.432" rx="20.432" ry="20.432" transform="translate(96.086 335.708)" fill="#fff"/>
    <ellipse id="Ellipse_4" data-name="Ellipse 4" cx="16.566" cy="16.566" rx="16.566" ry="16.566" transform="translate(194.38 361.11)" fill="#fff"/>
    <ellipse id="Ellipse_5" data-name="Ellipse 5" cx="12.701" cy="12.701" rx="12.701" ry="12.701" transform="translate(289.361 331.29)" fill="#fff"/>
    <ellipse id="Ellipse_6" data-name="Ellipse 6" cx="9.388" cy="9.388" rx="9.388" ry="9.388" transform="translate(350.105 257.293)" fill="#fff"/>
    <ellipse id="Ellipse_7" data-name="Ellipse 7" cx="6.074" cy="6.074" rx="6.074" ry="6.074" transform="translate(360.045 164.521)" fill="#fff"/>
    <ellipse id="Ellipse_2" data-name="Ellipse 2" cx="24.85" cy="24.85" rx="24.85" ry="24.85" transform="translate(24.298 263.92)" fill="#fff"/>
    <rect id="Rectangle_2" data-name="Rectangle 2" width="512" height="512" transform="translate(-69.903 -53.661)" fill="none"/>
  </g>
</svg>
