<svg xmlns="http://www.w3.org/2000/svg" width="512" height="512" viewBox="0 0 512 512">
  <g id="icon-grid" transform="translate(62.176 65.206)">
    <path id="Path_3" data-name="Path 3" d="M275.515,398.269c-.51-39.921-.51-79.768-.51-120.271,40.32,0,80.308,0,120.8,0,.5,39.884.5,79.772.5,120.351C356.082,398.344,316.054,398.344,275.515,398.269Z" transform="translate(-8.865 -6.247)" fill="#fff"/>
    <path id="Path_4" data-name="Path 4" d="M34.1,155.5c39.927-.512,79.783-.512,119.957-.512v120.4c-39.621,0-79.248,0-119.381.005-.553-39.79-.6-79.585-.577-119.891m72.236,3.918H38.749V270.626H149.616V159.419Z" transform="translate(-34.024 -19.093)" fill="#fff"/>
    <path id="Path_5" data-name="Path 5" d="M396.227,274.9c-39.921.514-79.773.514-119.94.514V155c39.628,0,79.254,0,119.385-.005.544,39.795.584,79.6.555,119.909M330.639,159.418h-49.9v111.2H391.588v-111.2Z" transform="translate(-8.731 -19.092)" fill="#fff"/>
    <path id="Path_6" data-name="Path 6" d="M155.5,398.248c-.512-39.928-.512-79.784-.512-119.959H275.369c0,39.627,0,79.256,0,119.39-39.786.55-79.57.6-119.866.569M270.344,281.8a14.449,14.449,0,0,0-2.66-.5q-52.127-.039-104.254.028c-1.324,0-2.647.776-4.006,2.207V393.609h111.5C270.926,356.364,270.926,319.445,270.344,281.8Z" transform="translate(-21.399 -6.216)" fill="#fff"/>
    <path id="Path_7" data-name="Path 7" d="M274.885,32.1c.512,39.927.512,79.782.512,119.957H155c0-39.621,0-79.248,0-119.381,39.79-.553,79.586-.6,119.893-.576m-3.923,114.715V36.736H159.45c0,37.249,0,74.172.587,111.811a14.7,14.7,0,0,0,2.664.489q52.128.039,104.255-.028C268.283,149.005,269.608,148.24,270.962,146.811Z" transform="translate(-21.398 -31.927)" fill="#fff"/>
    <path id="Path_8" data-name="Path 8" d="M153.876,32.088c.513,39.924.513,79.778.513,120.3-39.971,0-79.6,0-119.724,0-.5-39.886-.5-79.777-.5-120.372,39.873,0,79.538,0,119.716.071M39.019,148.555a14.7,14.7,0,0,0,2.664.489q52.128.039,104.255-.028c1.327,0,2.652-.768,4.005-2.2V36.744H38.432C38.432,73.993,38.432,110.915,39.019,148.555Z" transform="translate(-34.017 -31.935)" fill="#fff"/>
    <path id="Path_9" data-name="Path 9" d="M34.1,278.5c39.9-.512,79.737-.512,119.892-.512.145,1.474.369,2.69.37,3.905q.028,55.651-.013,111.3a21.011,21.011,0,0,1-.854,4.6c-39.727.41-79.249.41-119.466.41,0-39.869,0-79.533.072-119.709m115.237,3.335a14.448,14.448,0,0,0-2.661-.5q-52.127-.039-104.254.028c-1.324,0-2.647.776-4.006,2.207V393.64h111.5C149.921,356.4,149.921,319.476,149.34,281.836Z" transform="translate(-34.031 -6.248)" fill="#fff"/>
    <path id="Path_10" data-name="Path 10" d="M396.277,151.888c-39.923.512-79.774.512-120.277.512,0-39.971,0-79.6-.011-119.727,38.634-.56,77.279-.569,115.923-.73,4.456-.019,4.5,2.472,4.5,5.7-.053,37.912-.05,75.824-.133,114.247m-115.24-3.326a14.7,14.7,0,0,0,2.664.489q52.127.039,104.255-.028c1.327,0,2.653-.768,4.006-2.2V36.751H280.451C280.451,74,280.451,110.923,281.037,148.563Z" transform="translate(-8.762 -31.943)" fill="#fff"/>
    <path id="Path_11" data-name="Path 11" d="M275.351,230.069v44.942H155.307v-119.7H275.351v74.762M163.444,159.386c-4.367-.871-4.089,1.969-4.085,4.891q.062,51.3.036,102.607c0,1.229.135,2.457.211,3.745h111.02V159.385Z" transform="translate(-21.365 -19.06)" fill="#fff"/>
    <rect id="Rectangle_3" data-name="Rectangle 3" width="512" height="512" transform="translate(-62.176 -65.206)" fill="none"/>
  </g>
</svg>
